<?xml version="1.0" encoding="utf-8"?>
<!-- Generator: Adobe Illustrator 16.0.3, SVG Export Plug-In . SVG Version: 6.00 Build 0)  -->
<!DOCTYPE svg PUBLIC "-//W3C//DTD SVG 1.1//EN" "http://www.w3.org/Graphics/SVG/1.1/DTD/svg11.dtd">
<svg version="1.1" id="Capa_1" xmlns="http://www.w3.org/2000/svg" xmlns:xlink="http://www.w3.org/1999/xlink" x="0px" y="0px"
	 width="612px" height="383.637px" viewBox="0 0 612 383.637" enable-background="new 0 0 612 383.637" xml:space="preserve">
<title>tarjeta-hites-negra</title>
<path fill="#FFFFFF" d="M214.375,189.895c-69.943,19.934-45.638,100.893-34.972,137.788l16.262,55.954h141.284l-36.895-127.121
	C285.367,205.981,268.93,173.983,214.375,189.895z"/>
<path fill="#FFFFFF" d="M0,26.578v330.479c0.095,14.64,11.939,26.482,26.578,26.578h111.035L25.018,0.044
	C11.02,0.861-0.005,12.458,0,26.578z"/>
<path fill="#FFFFFF" d="M585.422,0H82.882l61.2,207.556h1.224c7.956-35.376,34.906-63.404,69.943-72.741
	c78.161-22.73,114.706,27.453,136.039,99.319l43.539,149.503h191.294c14.405-0.379,25.884-12.168,25.879-26.578V26.578
	C612,11.899,600.101,0,585.422,0z M584.197,237.456H464.246v-83.407h119.951V237.456z"/>
<path fill="#FFFFFF" d="M25.004,0l0.013,0.044C25.304,0.027,25.59,0.008,25.879,0H25.004z"/>
</svg>
