<?xml version="1.0" encoding="utf-8"?>
<!-- Generator: Adobe Illustrator 16.0.3, SVG Export Plug-In . SVG Version: 6.00 Build 0)  -->
<!DOCTYPE svg PUBLIC "-//W3C//DTD SVG 1.0//EN" "http://www.w3.org/TR/2001/REC-SVG-20010904/DTD/svg10.dtd">
<svg version="1.0" id="Layer_2_copy_2" xmlns="http://www.w3.org/2000/svg" xmlns:xlink="http://www.w3.org/1999/xlink" x="0px"
	 y="0px" width="120px" height="120px" viewBox="-10 -10 120 120" style="enable-background:new -10 -10 120 120;"
	 xml:space="preserve">
<path style="fill:#FFFFFF;" d="M3.333,100.975c0,0-0.709-9.563,1.333-18.367s8.865-15.074,10.852-15.798
	c1.859-0.674,3.793-1.432,5.755-2.253l0.327-0.118c2.093-0.641,4.3-1.362,6.559-2.145c1.51-0.522,2.957-0.992,4.324-1.402
	c0-0.015,0-0.028,0-0.043c0-0.986-0.071-1.92-0.211-2.773c-0.141-0.834-0.324-1.32-0.452-1.578l-0.11-0.244
	c-0.358-0.886-0.791-2.094-1.36-3.801c-0.481-1.445-0.834-2.842-1.053-4.164c-0.487-0.759-0.981-1.68-1.497-2.787
	c-0.707-1.508-1.331-3.459-1.908-5.958l-0.041-0.206c-0.405-2.408-0.538-4.124-0.419-5.401c0.094-1.05,0.242-2.085,0.44-3.064
	l0.302-1.497c-0.015-0.4-0.045-0.933-0.103-1.634c-0.164-1.945-0.411-3.926-0.735-5.879c-0.243-1.672-0.115-3.775,0.389-6.692
	c0.523-3.046,1.925-6.038,4.166-8.889c0.576-0.765,1.375-1.667,2.332-2.624c1.125-1.124,2.467-2.037,3.992-2.715
	c1.356-0.758,2.892-1.425,4.57-1.983c1.789-0.597,3.878-0.999,6.207-1.195l0.293-0.012l4.663,0.012
	c2.329,0.196,4.418,0.598,6.207,1.195c1.666,0.555,3.202,1.222,4.566,1.983c1.519,0.677,2.859,1.587,3.986,2.708
	c0.862,0.868,1.626,1.631,2.309,2.307l0.214,0.212l0.175,0.246c1.99,2.796,3.307,5.704,3.914,8.643
	c0.619,2.99,0.701,5.215,0.255,6.973c-0.302,1.826-0.493,3.698-0.57,5.568c-0.056,1.276-0.086,2.134-0.104,2.704
	c0.452,1.148,0.742,2.369,0.861,3.629c0.122,1.356-0.099,3.108-0.692,5.521c-0.409,2.561-1.025,4.594-1.882,6.21
	c-0.568,1.062-1.079,1.935-1.55,2.645c-0.223,1.331-0.574,2.721-1.049,4.145c-0.521,1.566-0.977,2.839-1.353,3.782l-0.247,0.501
	c-0.387,0.649-0.713,1.367-0.967,2.135c-0.229,0.675-0.336,1.315-0.337,1.975c1.281,0.39,2.684,0.818,4.205,1.284
	c2.156,0.664,4.342,1.363,6.5,2.079l0.158,0.058l1.375,0.526c2.411,0.921,7.605,3.753,9.023,4.849
	c4.418,3.412,7.373,7.625,8.538,15.577s0.869,15.758,0.869,15.758H3.333z M11.351,93.72L89,93.833c0,0,0.167-14.5-7.105-19.895
	c-1.196-0.887-4.304-1.781-6.468-2.608l-1.315-0.504c-2.085-0.691-4.196-1.366-6.275-2.007c-2.216-0.679-4.183-1.279-5.886-1.792
	l-0.536-0.211c-1.181-0.58-2.037-1.527-2.417-2.672c-0.234-0.695-0.311-1.512-0.311-3.296c0-1.414,0.235-2.828,0.698-4.201
	c0.376-1.134,0.862-2.226,1.441-3.238c0.309-0.795,0.694-1.884,1.123-3.171c0.437-1.312,0.731-2.556,0.875-3.699l0.116-0.925
	l0.562-0.745c0.27-0.358,0.751-1.083,1.508-2.498c0.334-0.632,0.815-1.877,1.168-4.153l0.063-0.312
	c0.608-2.435,0.559-3.249,0.551-3.333c-0.036-0.383-0.104-0.751-0.203-1.11l-0.709-0.71v-1.448c0-0.625,0.047-2.048,0.131-4.004
	c0.092-2.21,0.323-4.432,0.688-6.596l0.086-0.38c0.028-0.099,0.261-1.05-0.32-3.851c-0.394-1.905-1.267-3.844-2.596-5.766
	c-0.637-0.632-1.34-1.336-2.11-2.111c-0.536-0.533-1.189-0.965-1.981-1.305l-0.351-0.174c-1.009-0.575-2.182-1.086-3.483-1.52
	c-1.231-0.411-2.724-0.696-4.439-0.849h-4.066c-1.716,0.153-3.208,0.438-4.439,0.848c-1.313,0.437-2.483,0.947-3.481,1.517
	l-0.359,0.179c-0.792,0.339-1.441,0.768-1.986,1.313c-0.727,0.727-1.31,1.38-1.733,1.942c-1.558,1.982-2.49,3.917-2.814,5.809
	c-0.498,2.875-0.425,4.055-0.371,4.43c0.344,2.066,0.615,4.234,0.794,6.373c0.223,2.712,0.159,3.971-0.048,4.836
	c-0.077,0.429-0.224,0.831-0.43,1.193c-0.068,0.448-0.124,0.91-0.166,1.382c-0.028,0.298-0.047,1.205,0.333,3.5
	c0.451,1.935,0.923,3.438,1.405,4.466c0.619,1.329,1.045,2,1.294,2.329l0.566,0.75l0.115,0.933c0.137,1.118,0.431,2.359,0.874,3.689
	c0.49,1.47,0.873,2.547,1.166,3.283c0.464,0.973,0.798,2.088,1.02,3.404c0.204,1.242,0.306,2.557,0.306,3.922
	c0,2.28-0.101,3.075-0.491,3.864c-0.267,0.527-0.612,0.999-1.041,1.431l-0.66,0.663l-0.903,0.246
	c-1.794,0.488-3.792,1.113-5.94,1.856c-2.278,0.789-4.509,1.52-6.634,2.172c-2.011,0.839-5.303,2.062-6.905,3.307
	C11.833,78.333,11.351,93.72,11.351,93.72z"/>
</svg>
