<?xml version="1.0" encoding="utf-8"?>
<!-- Generator: Adobe Illustrator 16.0.3, SVG Export Plug-In . SVG Version: 6.00 Build 0)  -->
<!DOCTYPE svg PUBLIC "-//W3C//DTD SVG 1.0//EN" "http://www.w3.org/TR/2001/REC-SVG-20010904/DTD/svg10.dtd">
<svg version="1.0" id="Layer_1" xmlns="http://www.w3.org/2000/svg" xmlns:xlink="http://www.w3.org/1999/xlink" x="0px" y="0px"
	 width="120px" height="120px" viewBox="-10 -10 120 120" style="enable-background:new -10 -10 120 120;" xml:space="preserve">
<path style="fill:#FFFFFF;" d="M50,0c5.143,0,12.554,1.84,16.232,5.518c3.678,3.679,5.518,8.09,5.518,13.232v12.5h15.875l10,68.75
	H2.375l10-68.75H28.25v-12.5c0-5.142,1.839-9.554,5.518-13.232C37.445,1.84,44.856,0,50,0z M81.375,37.5h-62.75l-8,56.25h78.75
	L81.375,37.5z M34.5,18.75v12.5h31v-12.5c0-3.45-1.221-6.396-3.662-8.838S53.45,6.25,50,6.25c-3.452,0-9.396,1.221-11.838,3.662
	S34.5,15.3,34.5,18.75z"/>
</svg>
