<?xml version="1.0" encoding="utf-8"?>
<!-- Generator: Adobe Illustrator 16.0.3, SVG Export Plug-In . SVG Version: 6.00 Build 0)  -->
<!DOCTYPE svg PUBLIC "-//W3C//DTD SVG 1.1//EN" "http://www.w3.org/Graphics/SVG/1.1/DTD/svg11.dtd">
<svg version="1.1" id="Layer_1" xmlns="http://www.w3.org/2000/svg" xmlns:xlink="http://www.w3.org/1999/xlink" x="0px" y="0px"
	 width="107.621px" height="44px" viewBox="0 0 107.621 44" enable-background="new 0 0 107.621 44" xml:space="preserve">
<circle fill="#00ff00" cx="32.967" cy="7.474" r="4.139"/>
<path fill="#00ff00" d="M0,0v42.646h5.294V30.002c0-3.438,0-10.997,6.822-10.997c5.409,0,6.058,3.176,6.058,7.881v15.761h5.291
	V26.239c0-6.704-2-11.938-9.762-11.938c-3.352,0-6.645,1.587-8.292,4.528H5.294V0H0z"/>
<rect x="30.268" y="15.1" fill="#FFFFFF" width="5.397" height="27.542"/>
<path fill="#00ff00" d="M65.905,25.654c0.646-3.94,3.705-6.88,7.82-6.88c4.233,0,6.939,2.764,7.586,6.88H65.905z M86.602,29.652
	v-0.823c0-8.173-4.115-14.641-12.876-14.641c-8.879,0-13.406,6.35-13.406,14.818c0,8.114,5.117,14.465,13.523,14.465
	c5.352,0,10.174-2.763,12.759-7.525l-4.467-2.529c-2,3.293-4.176,5.35-8.233,5.35c-5.057,0-8.231-4.41-8.291-9.113H86.602z"/>
<path fill="#DC143C" d="M105.559,18.966c-1.474-3.004-4.183-4.831-7.541-4.831c-4.476,0-8.127,3.535-8.127,8.012
	c0,3.769,2.238,5.301,5.301,6.949l5.185,2.771c1.235,0.823,1.942,1.53,1.942,3.003c0,2.357-1.942,3.891-4.184,3.891
	c-2.531,0-3.886-1.474-5.005-3.535l-4.536,2.063c1.472,3.888,5.538,6.186,9.542,6.186c5.125,0,9.484-3.89,9.484-9.131
	c0-4.359-3.124-6.361-6.361-7.834c-3.24-1.473-6.422-2.533-6.422-4.948c0-1.533,1.413-2.709,2.887-2.709
	c1.532,0,2.887,1.061,3.535,2.415L105.559,18.966z"/>
<path fill="#DC143C" d="M58.569,39.654l-0.578,3.757c-0.149,0.019-0.524,0.039-1.122,0.06c-0.575,0.016-1.079,0.029-1.504,0.029
	c-4.381,0-7.691-0.838-9.937-2.516c-2.243-1.696-3.364-4.287-3.364-7.78c0-2.188,0-28.539,0-28.539h5.032v8.722h11.473v4.929H47.097
	c0,0.414-0.098,12.463-0.098,14.12c0,2.566,0.749,4.42,2.246,5.563c1.493,1.123,3.801,1.686,6.922,1.686h1.378
	C58.077,39.665,58.42,39.654,58.569,39.654z"/>
</svg>
