<svg id="Capa_1" data-name="Capa 1" xmlns="http://www.w3.org/2000/svg" viewBox="0 0 288 60"><defs><style>.cls-1,.cls-2{fill:#1d1d1b;}.cls-2,.cls-3{fill-rule:evenodd;}.cls-3{fill:#e30a34;}</style></defs><title>logo-daewoo</title><rect class="cls-1" x="67.83" y="8.3" width="22.43" height="5.07"/><rect class="cls-1" x="67.83" y="17.76" width="22.43" height="5.11"/><rect class="cls-1" x="67.83" y="26.19" width="22.43" height="5.07"/><polygon class="cls-2" points="91.55 8.3 96.66 8.3 108.71 31.26 103.64 31.26 91.55 8.3"/><polygon class="cls-2" points="37.69 31.34 43.8 31.34 52.15 15.58 53.14 15.58 61.49 31.34 67.1 31.34 54.4 8.26 54.4 8.15 50.93 8.15 50.93 8.18 37.69 31.34"/><polygon class="cls-2" points="100.32 8.15 106.46 8.15 114.82 23.94 115.81 23.94 124.16 8.15 129.77 8.15 117.07 31.22 117.07 31.34 113.56 31.34 113.56 31.3 100.32 8.15"/><path class="cls-2" d="M169.28,7.12c7.67,0,13.89,5.68,13.89,12.7S177,32.48,169.28,32.48s-13.92-5.64-13.92-12.66,6.26-12.7,13.92-12.7Zm-.07,4.53c-5,0-9,3.67-9,8.17s4,8.2,9,8.2,9-3.66,9-8.2S174.17,11.65,169.21,11.65Z"/><path class="cls-2" d="M140.68,7.12c7.66,0,13.88,5.68,13.88,12.7s-6.22,12.66-13.88,12.66-13.89-5.64-13.89-12.66S133,7.12,140.68,7.12Zm0,4.53c-4.92,0-8.93,3.67-8.93,8.17s4,8.2,8.93,8.2,8.92-3.66,8.92-8.2S145.6,11.65,140.68,11.65Z"/><path class="cls-2" d="M15.68,8.15h10A23.71,23.71,0,0,1,34,9.4c9.35,3.55,8.85,17,.2,20.53a21.42,21.42,0,0,1-8.51,1.52h-10V8.15Zm5,4.73V26.76h5.91a12.39,12.39,0,0,0,5.07-1c5.12-2.06,5.42-10.07-.15-12.17a14.41,14.41,0,0,0-4.92-.76Z"/><path class="cls-3" d="M265.44,25.12a4.79,4.79,0,1,1-4.8,4.81,4.81,4.81,0,0,1,4.8-4.81ZM194.5,18.18a86,86,0,0,0,0,21.74c.45,5.53,2.17,9.92,6.75,11.86,2.74.92,5,.88,8.77,0,8.81-2.44,32.92-15.49,23.31-27.88-7-9.12-36.62-29.26-38.83-5.72Zm5.07,5c.38-3.44,2.25-5.38,4.5-6.07a16.08,16.08,0,0,1,5.72,0,29.87,29.87,0,0,1,18.65,9.42,5,5,0,0,1,0,7.29,36.52,36.52,0,0,1-17.35,9,13,13,0,0,1-6.52,0c-3.4-1.11-4.66-3.7-5-6.94a39.46,39.46,0,0,1,0-12.74Zm72.74-5.95c0-3.4-.08-6.79,0-10.19-13.62.92-24.41,5.49-32.16,14-4.46,6-4.23,12.2.19,17.81,7.14,9.42,19.34,12.7,32,14.15V43c-6.41-.76-13-1.64-19.23-3.89-15.29-6-15.06-12,0-18.08A64.58,64.58,0,0,1,272.31,17.19Z"/><path class="cls-1" d="M64.39,51.28V40.34h6.26v1.79h-4v2.56h3.7V46.4h-3.7v3h4.08v1.86Zm10.72,0V40.34h2.25v9.08h4.08v1.86Zm10.6,0V40.34H92v1.79H88v2.56h3.7V46.4H88v3h4.09v1.86Zm15.57-3.92h2.17a.58.58,0,0,0,0,.23v.22a4,4,0,0,1-.92,2.83,3.56,3.56,0,0,1-2.71.91,4.15,4.15,0,0,1-1.48-.23,2.58,2.58,0,0,1-1.07-.61,3.27,3.27,0,0,1-.88-1.56,18.24,18.24,0,0,1-.23-3.47A16.49,16.49,0,0,1,96.36,43a3.37,3.37,0,0,1,.45-1.49A2.85,2.85,0,0,1,98,40.41a4.4,4.4,0,0,1,1.83-.34,3.56,3.56,0,0,1,2.71.88,3.94,3.94,0,0,1,.84,2.78H101.2v-.26a2.18,2.18,0,0,0-.31-1.34,1.08,1.08,0,0,0-1-.42,1.19,1.19,0,0,0-1.14.57,11.4,11.4,0,0,0-.27,3.36,12.71,12.71,0,0,0,.27,3.59,1.33,1.33,0,0,0,2.17.15,4.17,4.17,0,0,0,.31-1.87v-.15Zm8.46,3.92V42.13h-2.59V40.34h7.44v1.79H112v9.15Zm11-6.33H122a2,2,0,0,0,1.37-.34,1.7,1.7,0,0,0,.38-1.3,1.31,1.31,0,0,0-.42-1.14,2.73,2.73,0,0,0-1.52-.31h-1.11V45Zm-2.17,6.33V40.34h4a4.41,4.41,0,0,1,2.67.65,2.74,2.74,0,0,1,.8,2.21,2.79,2.79,0,0,1-.46,1.68,1.6,1.6,0,0,1-1.26.72A2.25,2.25,0,0,1,126,48v.16l.08,1.44a3.7,3.7,0,0,0,.15,1,2.6,2.6,0,0,0,.46.64H124c0-.19-.08-.41-.11-.64a7,7,0,0,1-.08-1.07l0-1.15v-.3a1.57,1.57,0,0,0-.46-1.3,3,3,0,0,0-1.79-.34h-.8v4.8Zm14.11-5.49a9.94,9.94,0,0,0,.34,3.4,1.31,1.31,0,0,0,1.3.72,1.29,1.29,0,0,0,1.26-.68,10.11,10.11,0,0,0,.34-3.44,10.36,10.36,0,0,0-.34-3.43,1.28,1.28,0,0,0-1.26-.69,1.3,1.3,0,0,0-1.3.69,10.36,10.36,0,0,0-.34,3.43Zm-2.33,0a18.1,18.1,0,0,1,.19-2.78,3.61,3.61,0,0,1,.58-1.57,3.09,3.09,0,0,1,1.25-1.06,5.52,5.52,0,0,1,2-.31,5.29,5.29,0,0,1,1.91.31,3.18,3.18,0,0,1,1.26,1.06,4,4,0,0,1,.57,1.61,17.52,17.52,0,0,1,.19,2.74,18.24,18.24,0,0,1-.19,2.79,3.7,3.7,0,0,1-.57,1.56,2.84,2.84,0,0,1-1.26,1.07,4.51,4.51,0,0,1-1.91.34,4.71,4.71,0,0,1-2-.34,2.77,2.77,0,0,1-1.25-1.07,3.56,3.56,0,0,1-.58-1.56,18,18,0,0,1-.19-2.79Zm12.48,5.49V40.34h2.28L148.23,48l-.08-7.63h2.14V51.28H148l-3.16-7.66,0,7.66Zm12.32,0V40.34h2.25V51.28ZM167,47.36h2.21v.45a4.13,4.13,0,0,1-.88,2.83,3.69,3.69,0,0,1-2.71.91,4.23,4.23,0,0,1-1.52-.23,2.94,2.94,0,0,1-1.07-.61,3.22,3.22,0,0,1-.84-1.56,14.78,14.78,0,0,1-.27-3.47A16.49,16.49,0,0,1,162,43a4.61,4.61,0,0,1,.46-1.49,3,3,0,0,1,1.22-1.07,4.51,4.51,0,0,1,1.86-.34,3.46,3.46,0,0,1,2.67.88,3.76,3.76,0,0,1,.84,2.78h-2.17v-.26a2.17,2.17,0,0,0-.34-1.34,1.06,1.06,0,0,0-1-.42,1.12,1.12,0,0,0-1.1.57,10.85,10.85,0,0,0-.31,3.36,12.71,12.71,0,0,0,.27,3.59,1.16,1.16,0,0,0,1.1.64,1.09,1.09,0,0,0,1.07-.49,4.17,4.17,0,0,0,.31-1.87v-.15Zm6.83.07H176v.69a2.32,2.32,0,0,0,.26,1.37,1.14,1.14,0,0,0,1,.38,1.5,1.5,0,0,0,1.07-.34,1.09,1.09,0,0,0,.38-1,1.29,1.29,0,0,0-.26-.84,4.55,4.55,0,0,0-1.11-.92l-1.18-.72a7.74,7.74,0,0,1-1.91-1.57A2.62,2.62,0,0,1,173.9,43a2.83,2.83,0,0,1,.88-2.18,3.91,3.91,0,0,1,2.51-.76,3.62,3.62,0,0,1,2.6.84,3,3,0,0,1,.88,2.36v.42h-2.14v-.3a1.78,1.78,0,0,0-.34-1.26,1.27,1.27,0,0,0-1.07-.42,1.18,1.18,0,0,0-.84.31,1.08,1.08,0,0,0-.31.8c0,.45.46,1,1.38,1.52h0l1.25.77a5.43,5.43,0,0,1,1.8,1.52,3.25,3.25,0,0,1,.45,1.79,2.86,2.86,0,0,1-.91,2.29,4,4,0,0,1-2.71.84,3.86,3.86,0,0,1-2.75-.88,3.49,3.49,0,0,1-.87-2.59,4.36,4.36,0,0,1,0-.61Z"/></svg>