<svg id="Capa_1" data-name="Capa 1" xmlns="http://www.w3.org/2000/svg" viewBox="0 0 288 60"><defs><style>.cls-1{fill:#2d4e9e;}</style></defs><title>logo-samsung</title><path class="cls-1" d="M157.23,28.54a37,37,0,0,0-4.32-2.27,34.63,34.63,0,0,1-6.09-3.41,3.54,3.54,0,0,1-.82-4,2.51,2.51,0,0,1,2.58-1.44s2.73.15,2.73,2.41v3.09h9.78V18.22s.75-7.63-11.54-8c0,0-9.66-.64-12.43,4.57,0,0-1.09,1.14-1.09,5.12v3a9.67,9.67,0,0,0,1.71,5.55,12.63,12.63,0,0,0,3.41,3s4.86,2.63,7.78,4.13c0,0,3,1.71,2.56,4.36a2.9,2.9,0,0,1-3.09,2.64,2.7,2.7,0,0,1-2.59-2.81V36.62H135.26v4.59S135,50,148.37,50c0,0,12.8.26,13.4-9v-3.7a9.8,9.8,0,0,0-4.52-8.69Z"/><polygon class="cls-1" points="107.11 11.34 103.83 31.87 103.07 31.87 99.94 11.53 83.59 11.53 82.77 48.7 92.45 48.7 92.57 20.69 93.34 20.69 98.46 48.7 108.65 48.7 113.72 20.71 114.38 20.71 114.62 48.7 124.35 48.7 123.31 11.34 107.11 11.34 107.11 11.34"/><polygon class="cls-1" points="49.5 11.49 43.05 48.67 53.48 48.67 57.28 19.84 58.14 19.84 61.96 48.67 72.37 48.67 65.94 11.49 49.5 11.49 49.5 11.49"/><path class="cls-1" d="M268.17,28v5.5h2.66v5.89a2.67,2.67,0,0,1-5.33.19h0V19.24c0-2.1,2.65-2.2,2.65-2.2a2.47,2.47,0,0,1,2.56,2.39v3.21h9.82c.32-6-.89-7.51-.89-7.51C277.21,9.67,268,10,268,10c-14.15,0-12.58,10.85-12.58,10.85V40.51c.3,10.24,14.25,9.15,14.49,9.13C276.11,49,278,47,278,47a6,6,0,0,0,2.17-3,18,18,0,0,0,.62-4.32V28Z"/><polygon class="cls-1" points="235.65 34.09 235.22 34.09 225.25 11.34 213.34 11.34 213.34 48.72 223.03 48.72 222.45 25.98 222.88 25.98 233.21 48.72 244.76 48.72 244.76 11.34 234.95 11.34 235.65 34.09 235.65 34.09"/><path class="cls-1" d="M189.68,39.4s.14,3.07-2.71,3.07a2.79,2.79,0,0,1-3-2.59,2.54,2.54,0,0,1,0-.39V11.37H173.31V39.26s-1.09,10.55,13.81,10.55c0,0,13,.16,13-10.07V11.37h-10.4Z"/><path class="cls-1" d="M29.22,28.54a36.75,36.75,0,0,0-4.3-2.27,33.23,33.23,0,0,1-6.11-3.41A3.55,3.55,0,0,1,18,18.75a2.51,2.51,0,0,1,2.58-1.42s2.73.14,2.73,2.39v3.16h9.8V18.22s.73-7.63-11.56-8a17.2,17.2,0,0,0-2.27,0s-7.44.41-10.11,4.49v.08S8.09,16,8.09,19.94v3a9.59,9.59,0,0,0,1.6,5.55,12.67,12.67,0,0,0,3.42,3s4.76,2.63,7.68,4.1c0,0,2.95,1.71,2.56,4.35a2.89,2.89,0,0,1-3.07,2.65,2.74,2.74,0,0,1-2.62-2.82V36.6H7.24v4.61S6.94,50,20.34,50c0,0,12.81.26,13.4-9v-3.7a9.75,9.75,0,0,0-4.52-8.69Z"/></svg>