<svg id="Capa_1" data-name="Capa 1" xmlns="http://www.w3.org/2000/svg" viewBox="0 0 288 60"><defs><style>.cls-1{fill:#e20613;}.cls-2{fill:#1d1d1b;}.cls-3{fill:#fff;}</style></defs><title>logo-gama</title><path class="cls-1" d="M60.05,32.91s28.39-12.6,34.72-2.62S74.6,53.72,62.47,54.83c0,0,29.43-9.83,25.71-21.86-2.41-7.78-26.26-.6-28.13-.06"/><path class="cls-1" d="M83.88,5.17C62.8,8.11,38.44,25.86,40.2,39.17c1,7.56,11.26,8.53,23.69,6.07a114,114,0,0,0,22.67-7.55S51.05,50.16,49.4,35.84c-.85-7.37,12.75-24.4,34.48-30.67"/><rect class="cls-1" x="102.81" y="43.89" width="43.62" height="10.01"/><path class="cls-2" d="M153.57,48.66h1c.62,0,1.4-.29,1.4-1.16s-.92-1.13-1.54-1.13h-.84Zm-1-3.12h1.82c1.43,0,2.62.47,2.62,2s-1.21,2-2.47,2h-1v2.64h-1Z"/><path class="cls-2" d="M161.51,48.37h.85c.94,0,1.5-.4,1.5-1s-.48-1-1.39-1h-1Zm-1-2.83h1.71c1.37,0,2.7.21,2.7,1.78a1.56,1.56,0,0,1-1.44,1.5v0a1.17,1.17,0,0,1,.68.66l1.32,2.63h-1.14l-1.07-2.29c-.3-.64-.63-.64-1.16-.64h-.6v2.93h-1Z"/><path class="cls-2" d="M172.05,51.41a2.3,2.3,0,0,0,2.3-2.58,2.31,2.31,0,1,0-4.59,0,2.3,2.3,0,0,0,2.29,2.58m0-6a3.18,3.18,0,0,1,3.35,3.4,3.35,3.35,0,1,1-3.35-3.4"/><polygon class="cls-2" points="179.15 45.54 182.85 45.54 182.85 46.37 180.15 46.37 180.15 48.3 182.73 48.3 182.73 49.13 180.15 49.13 180.15 52.13 179.15 52.13 179.15 45.54"/><polygon class="cls-2" points="186.65 45.54 190.55 45.54 190.55 46.37 187.64 46.37 187.64 48.3 190.29 48.3 190.29 49.13 187.64 49.13 187.64 51.3 190.55 51.3 190.55 52.13 186.65 52.13 186.65 45.54"/><path class="cls-2" d="M197.7,46.53a3.2,3.2,0,0,0-1.31-.27c-.56,0-1.21.19-1.21.87,0,1.27,3,1,3,3.15,0,1.4-1.15,2-2.55,2A4.59,4.59,0,0,1,194.2,52l.1-.87a4.5,4.5,0,0,0,1.44.32c.57,0,1.37-.31,1.37-1.08,0-1.47-3-1.06-3-3.11,0-1.17,1-1.79,2.23-1.79a4.91,4.91,0,0,1,1.49.23Z"/><path class="cls-2" d="M205.08,46.53a3.19,3.19,0,0,0-1.3-.27c-.56,0-1.22.19-1.22.87,0,1.27,3,1,3,3.15,0,1.4-1.15,2-2.54,2a4.66,4.66,0,0,1-1.43-.28l.1-.87a4.5,4.5,0,0,0,1.44.32c.57,0,1.37-.31,1.37-1.08,0-1.47-3-1.06-3-3.11,0-1.17,1-1.79,2.24-1.79a4.9,4.9,0,0,1,1.48.23Z"/><rect class="cls-2" x="209.3" y="45.54" width="1" height="6.58"/><path class="cls-2" d="M217.46,51.41a2.3,2.3,0,0,0,2.3-2.58,2.31,2.31,0,1,0-4.59,0,2.3,2.3,0,0,0,2.29,2.58m0-6a3.18,3.18,0,0,1,3.35,3.4,3.35,3.35,0,1,1-3.35-3.4"/><polygon class="cls-2" points="224.61 45.54 225.97 45.54 229.04 50.84 229.06 50.84 229.06 45.54 230.06 45.54 230.06 52.13 228.78 52.13 225.63 46.71 225.61 46.71 225.61 52.13 224.61 52.13 224.61 45.54"/><path class="cls-2" d="M236.91,46.43l-1.38,3.26h2.77Zm-.49-.89h1.05l2.94,6.59h-1.08l-.71-1.66h-3.41l-.71,1.66h-1.05Z"/><polygon class="cls-2" points="243.81 45.54 244.8 45.54 244.8 51.3 247.72 51.3 247.72 52.13 243.81 52.13 243.81 45.54"/><rect class="cls-3" x="109.2" y="45.73" width="1.3" height="6.04"/><polygon class="cls-3" points="115.29 46.68 113.44 46.68 113.44 45.73 118.44 45.73 118.44 46.68 116.58 46.68 116.58 51.77 115.29 51.77 115.29 46.68"/><path class="cls-3" d="M123.31,46.94h0l-.94,2.49h1.89Zm-.71-1.21h1.46l2.54,6h-1.44l-.55-1.39H122l-.56,1.39h-1.34Z"/><polygon class="cls-3" points="129.65 45.73 130.95 45.73 130.95 50.82 133.46 50.82 133.46 51.77 129.65 51.77 129.65 45.73"/><polygon class="cls-3" points="137.19 49.38 134.83 45.73 136.35 45.73 137.88 48.27 139.43 45.73 140.8 45.73 138.49 49.38 138.49 51.77 137.19 51.77 137.19 49.38"/><path class="cls-2" d="M153.69,24.13a1.93,1.93,0,0,0-.2-.76l-4-9.84-4.65,11.36h7.21c1.12,0,1.63-.08,1.63-.76m5.42,12.41-3.68-8.78h-9.3c-3,0-3.32,1.69-4.65,5.19-1,2.71-1.43,4.06-2.91,4.06-1.27,0-2.2-.72-2.2-1.61a1.47,1.47,0,0,1,.16-.63L146.9,10.41c1.37-3.18,3.53-3.78,7-3.68l12.57,29.81Z"/><path class="cls-2" d="M235.14,24.13a1.93,1.93,0,0,0-.2-.76l-4-9.84L226.3,24.89h7.2c1.13,0,1.64-.08,1.64-.76m5.41,12.41-3.67-8.78h-9.3c-3,0-3.32,1.69-4.65,5.19-1,2.71-1.43,4.06-2.91,4.06-1.28,0-2.2-.72-2.2-1.61a1.34,1.34,0,0,1,.16-.63l10.37-24.36c1.37-3.18,3.53-3.78,7-3.68l12.57,29.81Z"/><path class="cls-2" d="M171.81,36.73a2,2,0,0,1-2.13-2,2.13,2.13,0,1,1,2.13,2"/><path class="cls-2" d="M212.87,36.59h-6.78V13.53l-8.78,21.75a3.34,3.34,0,0,1-5.88-.05l-8.74-21.49V35.28A1.91,1.91,0,0,1,180.6,37a2,2,0,0,1-2.15-1.73V13.19c0-2.41.6-5.71-3.65-5.71h-.31v-.2h13.57L195.74,28l7.45-20.74h9.68Z"/><path class="cls-2" d="M244.58,7.82v2.59H245v-1h.37a1,1,0,0,1,.51.09.62.62,0,0,1,.25.59v.29l0,0v0h.43v0l0-.13V9.85a.88.88,0,0,0-.14-.4A.65.65,0,0,0,246,9.2a1.07,1.07,0,0,0,.37-.12.57.57,0,0,0,.25-.51.64.64,0,0,0-.4-.66,2.11,2.11,0,0,0-.71-.09Zm1.56.79a.37.37,0,0,1-.26.4,1.61,1.61,0,0,1-.44.05H245V8.13h.4a1.27,1.27,0,0,1,.56.1.39.39,0,0,1,.17.38m1.75.51a2.36,2.36,0,0,0-2.36-2.35,2.37,2.37,0,0,0-2.36,2.35,2.36,2.36,0,0,0,4,1.67,2.32,2.32,0,0,0,.69-1.67m-2.36-2a2,2,0,0,1,1.44.6,1.94,1.94,0,0,1,.6,1.43,2,2,0,0,1-.6,1.45,2.05,2.05,0,0,1-2.88,0,2,2,0,0,1-.6-1.45,1.94,1.94,0,0,1,.6-1.43,2,2,0,0,1,1.44-.6"/><path class="cls-2" d="M121.1,24.63c-2.89,0-3,3.17,0,3.17h4.83v3.09c0,2.4-1,2.85-4.69,2.85-6.44,0-11.56-3.62-11.56-12.06,0-6.77,4-12,10.22-12,4.24,0,8.52,1.44,8.82,4.36h.2V8.13a27.4,27.4,0,0,0-9.07-1.36c-7.32,0-17.43,4.41-17.43,15.12,0,12,11.26,15.12,17.74,15.12a43.31,43.31,0,0,0,11.49-1.86V24.63Z"/></svg>