<svg id="Capa_1" data-name="Capa 1" xmlns="http://www.w3.org/2000/svg" xmlns:xlink="http://www.w3.org/1999/xlink" viewBox="0 0 288 60"><defs><style>.cls-1{fill:none;}.cls-2{fill:#5f6770;}.cls-3{clip-path:url(#clip-path);}.cls-4{fill:url(#Degradado_sin_nombre_4);}.cls-5{clip-path:url(#clip-path-2);}.cls-6{fill:url(#Degradado_sin_nombre_2);}.cls-7{clip-path:url(#clip-path-3);}.cls-8{fill:url(#Degradado_sin_nombre_3);}.cls-9{fill:#60686e;}.cls-10{fill:#86939b;}.cls-11{fill:#8d969c;}.cls-12{clip-path:url(#clip-path-4);}.cls-13{fill:url(#Degradado_sin_nombre_9);}.cls-14{clip-path:url(#clip-path-5);}.cls-15{fill:url(#Degradado_sin_nombre_9-2);}.cls-16{fill:#afb5b9;}.cls-17{clip-path:url(#clip-path-6);}.cls-18{fill:url(#Degradado_sin_nombre_6);}.cls-19{fill:#4c5459;}.cls-20{clip-path:url(#clip-path-7);}.cls-21{fill:url(#Degradado_sin_nombre_7);}.cls-22{clip-path:url(#clip-path-8);}.cls-23{fill:url(#Degradado_sin_nombre_8);}.cls-24{clip-path:url(#clip-path-9);}.cls-25{fill:url(#Degradado_sin_nombre_9-3);}.cls-26{clip-path:url(#clip-path-10);}.cls-27{fill:url(#Degradado_sin_nombre_10);}.cls-28{clip-path:url(#clip-path-11);}.cls-29{fill:url(#Degradado_sin_nombre_11);}.cls-30{fill:#fff;}</style><clipPath id="clip-path"><path class="cls-1" d="M75.18,30a30.32,30.32,0,0,0,60.64.24v-.47A30.32,30.32,0,0,0,75.18,30"/></clipPath><radialGradient id="Degradado_sin_nombre_4" cx="-1484.43" cy="-575.91" r="0.34" gradientTransform="matrix(94.52, 0, 0, -94.52, 140409.24, -54404.1)" gradientUnits="userSpaceOnUse"><stop offset="0" stop-color="#a22053"/><stop offset="0.5" stop-color="#a22053"/><stop offset="0.75" stop-color="#a02052"/><stop offset="0.85" stop-color="#991e50"/><stop offset="0.93" stop-color="#8c1c4b"/><stop offset="0.99" stop-color="#7b1945"/><stop offset="1" stop-color="#781844"/></radialGradient><clipPath id="clip-path-2"><path class="cls-1" d="M85,9.48C74.84,19.64,73.81,35.05,82.71,43.94s24.32,7.88,34.45-2.27,11.17-25.59,2.28-34.49A21.18,21.18,0,0,0,104.3,1.12,27.66,27.66,0,0,0,85,9.48"/></clipPath><linearGradient id="Degradado_sin_nombre_2" x1="-1493.07" y1="-585.88" x2="-1492.5" y2="-585.88" gradientTransform="translate(-48005.44 122601.66) rotate(90) scale(82.11)" gradientUnits="userSpaceOnUse"><stop offset="0" stop-color="#c67a7e"/><stop offset="0.25" stop-color="#ba5c6f"/><stop offset="0.56" stop-color="#ad3b60"/><stop offset="0.82" stop-color="#a52756"/><stop offset="1" stop-color="#a22053"/></linearGradient><clipPath id="clip-path-3"><path class="cls-1" d="M92.12,20.79a4.08,4.08,0,1,0,4.11-4.06h0a4.06,4.06,0,0,0-4.08,4v0m12.66-3.63h-.14v0l-.18.06.18.3V43.16l-.75.43.58.4a.8.8,0,0,0,.42.13h8.47a.19.19,0,0,0,.17-.2h0V41.57a.45.45,0,0,0-.06-.28L113,40.6h-5.49V17.28a.36.36,0,0,0-.06-.2l-.41-.69Zm1-12.66-.64.22c-14.24,0-24.92,11.87-24.92,26.05a25.43,25.43,0,0,0,25.37,25.47H106A25.67,25.67,0,0,0,131.9,30.77V29.13l-.62-.52H112.52v3l.47.62a.25.25,0,0,0,.16.06h15.71A22.85,22.85,0,1,1,89.8,14.61a23.18,23.18,0,0,1,16.3-6.67h1.37c.09,0,.15,0,.15-.2V5.27a.49.49,0,0,0-.05-.27L107,4.31Z"/></clipPath><linearGradient id="Degradado_sin_nombre_3" x1="-1490" y1="-582.57" x2="-1489.43" y2="-582.57" gradientTransform="translate(-52971.95 135755.43) rotate(90) scale(91.11)" gradientUnits="userSpaceOnUse"><stop offset="0" stop-color="#b04663"/><stop offset="0.06" stop-color="#a73e5e"/><stop offset="0.23" stop-color="#922d52"/><stop offset="0.42" stop-color="#83214a"/><stop offset="0.64" stop-color="#7b1a45"/><stop offset="1" stop-color="#781844"/></linearGradient><clipPath id="clip-path-4"><polygon class="cls-1" points="106.39 16.94 106.41 41.12 107.07 40.6 107.07 16.38 106.39 16.94"/></clipPath><linearGradient id="Degradado_sin_nombre_9" x1="-755.67" y1="-562.3" x2="-755.1" y2="-562.3" gradientTransform="translate(999.44 692.27) scale(1.18)" gradientUnits="userSpaceOnUse"><stop offset="0" stop-color="#afb5b9"/><stop offset="0.03" stop-color="#abb1b5"/><stop offset="0.49" stop-color="#676d72"/><stop offset="0.83" stop-color="#3d4348"/><stop offset="1" stop-color="#2d3338"/></linearGradient><clipPath id="clip-path-5"><polygon class="cls-1" points="112.43 41.17 112.43 42.98 113.02 43.59 113.02 40.6 112.43 41.17"/></clipPath><linearGradient id="Degradado_sin_nombre_9-2" x1="-655.85" y1="-566.61" x2="-655.28" y2="-566.61" gradientTransform="translate(792.63 631.37) scale(1.04)" xlink:href="#Degradado_sin_nombre_9"/><clipPath id="clip-path-6"><path class="cls-1" d="M92.44,20.33a3.38,3.38,0,1,1,3.4,3.35h0a3.37,3.37,0,0,1-3.39-3.35h0m-.58,0a4,4,0,1,0,4-4,3.95,3.95,0,0,0-4,4v0"/></clipPath><linearGradient id="Degradado_sin_nombre_6" x1="-1450.63" y1="-531.92" x2="-1450.06" y2="-531.92" gradientTransform="matrix(0, 13.89, 13.89, 0, 7484.12, 20163.45)" gradientUnits="userSpaceOnUse"><stop offset="0" stop-color="#a7b2b8"/><stop offset="1" stop-color="#20262a"/></linearGradient><clipPath id="clip-path-7"><path class="cls-1" d="M79.8,30a25.69,25.69,0,0,0,51.38.84v-2.3l-.6.6V30A25.1,25.1,0,1,1,105.46,4.89h1l.59-.57-1.55,0A25.7,25.7,0,0,0,79.8,30"/></clipPath><linearGradient id="Degradado_sin_nombre_7" x1="-1490" y1="-569.12" x2="-1489.43" y2="-569.12" gradientTransform="matrix(0, 90.96, 90.96, 0, 51872.72, 135536.67)" gradientUnits="userSpaceOnUse"><stop offset="0" stop-color="#afb5b9"/><stop offset="1" stop-color="#3a4044"/></linearGradient><clipPath id="clip-path-8"><path class="cls-1" d="M105.14,6.73a23.27,23.27,0,0,0,0,46.54h.6a23.33,23.33,0,0,0,22.92-21.7v-.64l-.29.27-.32.32a22.71,22.71,0,1,1-22.63-24.2H107l-.58-.59h-1.27Z"/></clipPath><linearGradient id="Degradado_sin_nombre_8" x1="-1507.67" y1="-575.62" x2="-1507.1" y2="-575.62" gradientTransform="matrix(-81.66, 0, 0, 81.66, -122984.6, 47035.21)" gradientUnits="userSpaceOnUse"><stop offset="0" stop-color="#afb5b9"/><stop offset="1" stop-color="#454b50"/></linearGradient><clipPath id="clip-path-9"><polygon class="cls-1" points="106.43 4.87 106.43 6.75 107.01 7.33 107.01 4.3 106.43 4.87"/></clipPath><linearGradient id="Degradado_sin_nombre_9-3" x1="-645.71" y1="-541.44" x2="-645.15" y2="-541.44" gradientTransform="translate(771.18 563.5) scale(1.03)" xlink:href="#Degradado_sin_nombre_9"/><clipPath id="clip-path-10"><path class="cls-1" d="M104.26,16.7V43.27h8.45V40.9h-6V16.7Zm.89-12.09A25.36,25.36,0,1,0,130.84,30V28.84H112.73v2.35h15.7v.35A23,23,0,1,1,105.46,7h1.22V4.63h-1Z"/></clipPath><radialGradient id="Degradado_sin_nombre_10" cx="-1486.67" cy="-575.64" r="0.34" gradientTransform="translate(172595.86 66813.09) scale(116.03)" gradientUnits="userSpaceOnUse"><stop offset="0" stop-color="#fff"/><stop offset="0.35" stop-color="#fff"/><stop offset="0.51" stop-color="#fbfbfc"/><stop offset="0.67" stop-color="#eef1f2"/><stop offset="0.83" stop-color="#dadfe2"/><stop offset="0.99" stop-color="#bdc7cb"/><stop offset="1" stop-color="#bcc6ca"/></radialGradient><clipPath id="clip-path-11"><path class="cls-1" d="M92.15,20.33a3.65,3.65,0,1,0,3.68-3.65,3.64,3.64,0,0,0-3.68,3.65v0"/></clipPath><radialGradient id="Degradado_sin_nombre_11" cx="-1425.07" cy="-574.31" r="0.34" gradientTransform="translate(24234.1 9747.34) scale(16.94)" gradientUnits="userSpaceOnUse"><stop offset="0" stop-color="#fff"/><stop offset="0.35" stop-color="#fff"/><stop offset="0.53" stop-color="#fbfbfc"/><stop offset="0.72" stop-color="#eef1f2"/><stop offset="0.91" stop-color="#dae0e1"/><stop offset="1" stop-color="#cdd5d7"/></radialGradient></defs><title>logo-lg</title><polygon class="cls-2" points="158.43 10.23 149.37 10.23 149.37 49.44 177.19 49.44 177.19 41.8 158.43 41.8 158.43 10.23"/><path class="cls-2" d="M197.11,34.49h7.37v6.89a21,21,0,0,1-6.53,1c-8.15,0-10.87-4.13-10.87-12.55,0-8,2.59-12.75,10.73-12.75,4.54,0,7.12,1.43,9.25,4.13l5.63-5.17c-3.44-4.92-9.44-6.4-15.07-6.4-12.68,0-19.34,6.88-19.34,20.11S184.3,50,197.55,50c6.08,0,12-1.54,15.27-3.81v-19H197.11Z"/><g class="cls-3"><rect class="cls-4" x="75.18" y="-0.31" width="60.64" height="60.63"/></g><g class="cls-5"><rect class="cls-6" x="66.62" y="-6.63" width="68.92" height="67.23" transform="translate(-3.13 36.2) rotate(-20)"/></g><g class="cls-7"><rect class="cls-8" x="69.43" y="-6.36" width="73.27" height="73.27" transform="translate(9.66 83.86) rotate(-45)"/></g><polygon class="cls-9" points="104.54 43 103.93 43.59 113.02 43.59 112.43 42.98 104.54 43"/><polygon class="cls-10" points="112.43 41.17 113.02 40.6 107.07 40.6 106.36 41.17 112.43 41.17"/><polygon class="cls-11" points="107.07 16.38 103.93 16.38 104.52 16.95 106.39 16.94 107.07 16.38"/><g class="cls-12"><rect class="cls-13" x="106.4" y="16.38" width="0.67" height="24.75"/></g><g class="cls-14"><rect class="cls-15" x="112.43" y="40.6" width="0.59" height="2.99"/></g><polygon class="cls-16" points="103.93 16.38 103.93 43.59 104.54 43 104.52 16.95 103.93 16.38"/><g class="cls-17"><rect class="cls-18" x="90.22" y="14.73" width="11.18" height="11.18" transform="translate(13.69 73.7) rotate(-45)"/></g><polygon class="cls-19" points="128.72 30.93 113.01 30.91 112.42 31.52 128.11 31.52 128.43 31.2 128.72 30.93"/><polygon class="cls-11" points="113 29.13 130.58 29.11 131.18 28.51 112.42 28.51 113 29.13"/><g class="cls-20"><rect class="cls-21" x="69.15" y="-6.35" width="72.67" height="72.67" transform="translate(9.69 83.38) rotate(-45)"/></g><g class="cls-22"><rect class="cls-23" x="82.22" y="6.73" width="46.5" height="46.54"/></g><polygon class="cls-16" points="113 29.13 112.42 28.51 112.42 31.52 113.01 30.91 113 29.13"/><g class="cls-24"><rect class="cls-25" x="106.43" y="4.31" width="0.58" height="3.03"/></g><g class="cls-26"><rect class="cls-27" x="80.1" y="4.61" width="50.73" height="50.76"/></g><g class="cls-28"><rect class="cls-29" x="92.15" y="16.68" width="7.28" height="7.26"/></g><path class="cls-30" d="M96.45,17.34a3.56,3.56,0,0,1,2.21.77,3.62,3.62,0,1,0-5.75,4.39,3.8,3.8,0,0,0,.66.67A3.57,3.57,0,0,1,92.81,21a3.64,3.64,0,0,1,3.64-3.64"/><path class="cls-30" d="M106.68,4.63l-1.22,0A25.39,25.39,0,0,0,87.57,48l.47.45A25.21,25.21,0,0,1,81,30.88c0-14,9.89-25.55,25.69-26.25"/><path class="cls-30" d="M106.68,40.9a24.82,24.82,0,0,0,6,.5v-.5Z"/><path class="cls-30" d="M106.68,17.45V16.7h-2.42V43.27s.76-4,.76-25.82Z"/><path class="cls-30" d="M130.84,28.84H112.72v2.35h.69V29.5c15.78,0,17.46-.69,17.46-.69"/><path class="cls-30" d="M128.43,31.2v.35a23,23,0,0,1-45.1,4.64,23.32,23.32,0,0,0,22.53,17.09A23,23,0,0,0,128.73,31.2Z"/></svg>