<svg id="Capa_1" data-name="Capa 1" xmlns="http://www.w3.org/2000/svg" viewBox="0 0 288 60"><defs><style>.cls-1{fill:#1b6781;}</style></defs><title>logo-fensa</title><path id="LOGO_FENSA" data-name="LOGO FENSA" class="cls-1" d="M248.19,14.94c-1.42-1.8-3.78-2.73-7-2.75l-1.19,0-59.09,0h-.08c-1.07,0-10.51.24-12.37,8.49-.37,1.65-.4,1.88-.4,1.88,0,.16-.93,4.1,1.19,6.79,1.24,1.57,3.25,2.36,6,2.36h18.67a2.45,2.45,0,0,1,2,.77,2.77,2.77,0,0,1,.37,2l-.1.43a3.28,3.28,0,0,1-3.46,2.54H177.1l-15.93,0,3.21-14.29.23-1c0-.18.91-4.33-1.43-7.26-1.42-1.79-3.74-2.71-6.89-2.74,0,0-19.63,0-25,0-3.75,0-4.31,3-5.08,7.09-.15.8-.31,1.62-.5,2.5-.36,1.68-2.86,12.64-2.88,12.75l-.71,3H90.25a2.34,2.34,0,0,1-1.88-.75,2.46,2.46,0,0,1-.44-1.87c.09-.64.52-2.61.64-3.17h20.65c7.33,0,10.26-3.46,11.37-5.53a15.94,15.94,0,0,0,1.14-3.52l.1-.39a19.38,19.38,0,0,0,.52-3.08,6.19,6.19,0,0,0-1.5-4.63c-1.42-1.53-3.77-2.32-7-2.37H95.38c-1.7,0-10.31.46-12.38,9.48l-.73,3.22h-29l3.16-11.61c.86-3.8,3.62-3.8,4.84-3.8H80.41A3.69,3.69,0,0,0,84.1,6.21a3.89,3.89,0,0,0-.42-3.08A3.25,3.25,0,0,0,80.92,2c-.07,0-7,0-13.85,0-2.58,0-5.16,0-7.4,0-7.9,0-9.77,4.82-10.91,9.34L38.37,54l-.07.34a3.63,3.63,0,0,0,.58,2.75,2.8,2.8,0,0,0,2.29.92H42.8a4.08,4.08,0,0,0,3.53-3.47l5.32-22.92,29.1,0-.64,2.72c0,.17-.91,4.22,1.39,7.11,1.42,1.8,3.75,2.72,6.92,2.74l36.28,0H125a4.16,4.16,0,0,0,4.29-3.16L134.37,19l19,0A3.36,3.36,0,0,1,156.09,20a3.55,3.55,0,0,1,.52,2.66l-4,17.6a3.38,3.38,0,0,0,.37,2.94,3.79,3.79,0,0,0,3.08,1h.12l35.42,0s.32,0,.84,0c2.26,0,9.78-.65,11.7-9.16.05-.18,1.27-4.52-1-7.53-1.34-1.79-3.63-2.7-6.82-2.71l-8.63,0c-5.85,0-9.28,0-9.33,0h0a2.56,2.56,0,0,1-2.13-.84,2.72,2.72,0,0,1-.26-2.41A3.72,3.72,0,0,1,179.69,19h.09l59.84,0a1.85,1.85,0,0,1,1.49.56,2.79,2.79,0,0,1,.35,2.14v0c-.12.62-.56,2.65-.68,3.23-1.44,0-12.51,0-21.14,0h0c-8.73,0-11,5.61-11.59,8a.39.39,0,0,1,0,.11,25.28,25.28,0,0,0-.67,3.58,7,7,0,0,0,1.37,5.4c1.32,1.51,3.49,2.28,6.43,2.28l.69,0H234s.26,0,.68,0c2.3,0,10-.63,11.79-8.71l3.1-13.69C249.61,21.72,250.46,17.77,248.19,14.94ZM90.73,21.88a3.9,3.9,0,0,1,4-3h16.7a2.86,2.86,0,0,1,2.36.86,2.63,2.63,0,0,1,.4,2l-.08.35c-.67,2.6-3.37,2.73-3.92,2.73h-20Zm148,13.24c-.51,2.33-4,2.36-4,2.36H218a3.11,3.11,0,0,1-2.55-.93,2.46,2.46,0,0,1-.12-2.2,3.89,3.89,0,0,1,4-2.64H239.5Z"/></svg>