<svg id="Capa_1" data-name="Capa 1" xmlns="http://www.w3.org/2000/svg" viewBox="0 0 75 75"><defs><style>.cls-1{fill:#ff9a24;}.cls-2{fill:#fff;}.cls-3{fill:#ffa426;}</style></defs><title>10cuotas</title><circle class="cls-1" cx="37.5" cy="37.5" r="37.5"/><path class="cls-2" d="M67,55.76a3.72,3.72,0,1,1-3.72-3.7A3.71,3.71,0,0,1,67,55.76"/><rect class="cls-2" x="60.8" y="29.24" width="4.85" height="21.84" transform="translate(-0.07 0.1) rotate(-0.09)"/><path class="cls-2" d="M40.07,42.81a13,13,0,0,1-9.58-4,13,13,0,0,1-4-9.58,13,13,0,0,1,4-9.59,13.53,13.53,0,0,1,19.17,0,13.06,13.06,0,0,1,4,9.59,13,13,0,0,1-4,9.58,13,13,0,0,1-9.59,4m0-19.62a6,6,0,0,0-6,6,6,6,0,0,0,6,6A6.05,6.05,0,0,0,44.35,25a5.91,5.91,0,0,0-4.28-1.77M24.22,15.66V42.81H16.69V26.05L13.1,29.1,8.22,23.33l9.07-7.67Z"/><path class="cls-2" d="M50.19,54.61l.09,0c.07,0,2.19-.69,2.19-.69v.73Z"/><path class="cls-2" d="M53,59.44h3.38a1.82,1.82,0,0,0,.56-.09,1.32,1.32,0,0,0,.48-.26,1.16,1.16,0,0,0,.34-.44,1.44,1.44,0,0,0,.13-.61,1.74,1.74,0,0,0-.1-.56,1.21,1.21,0,0,0-.28-.46,1.29,1.29,0,0,0-.45-.31,1.66,1.66,0,0,0-.61-.12H54.73a.21.21,0,0,1-.13-.05.18.18,0,0,1-.06-.15.22.22,0,0,1,.05-.14.18.18,0,0,1,.15,0h3.2V55H54.47a1.66,1.66,0,0,0-.61.12,1.29,1.29,0,0,0-.45.31,1.21,1.21,0,0,0-.28.46,1.69,1.69,0,0,0-.1.56,1.38,1.38,0,0,0,.13.61,1.16,1.16,0,0,0,.34.44,1.54,1.54,0,0,0,.49.26,1.45,1.45,0,0,0,.55.09h1.68a.18.18,0,0,1,.2.2.18.18,0,0,1-.06.14.24.24,0,0,1-.13,0H53v1.22Zm-4.81,0h4.16V58.21H49.74v-.39h2.65V56.6H49.74v-.39h2.65V55H48.23Zm-3.95-3.23H46a.22.22,0,0,1,.14,0,.19.19,0,0,1,.06.15.16.16,0,0,1-.07.14.21.21,0,0,1-.12.05h-1.7v-.39Zm-1.51,3.23h1.51V57.83h.54l1.29,1.62h1.56l-1.31-1.62a2.17,2.17,0,0,0,.5-.13,1.27,1.27,0,0,0,.41-.27,1.29,1.29,0,0,0,.3-.42,1.45,1.45,0,0,0,.1-.57,1.73,1.73,0,0,0-.09-.56,1.83,1.83,0,0,0-.28-.46,1.39,1.39,0,0,0-.45-.31,1.66,1.66,0,0,0-.61-.12H42.77Zm-5,0H42V58.21H39.32v-.39H42V56.6H39.32v-.39H42V55H37.8Zm-3.82,0h1.5V56.2H37V55H32.46V56.2H34v3.24Zm-3.58,0h1.51V55H30.4v2.48l-2-2.48H26.9v4.46h1.51v-2.5Zm-5.77,0h1.51V55H24.63Zm-5.36,0h1.5V55h-1.5v2.48l-2-2.48h-1.5v4.46h1.5v-2.5Zm-5.77,0H15V55H13.5ZM8,59.44h3.38a1.76,1.76,0,0,0,.55-.09,1.39,1.39,0,0,0,.83-.7,1.44,1.44,0,0,0,.12-.61,1.73,1.73,0,0,0-.09-.56,1.36,1.36,0,0,0-.28-.46,1.39,1.39,0,0,0-.45-.31,1.66,1.66,0,0,0-.61-.12H9.69a.18.18,0,0,1-.12-.05.18.18,0,0,1-.06-.15.22.22,0,0,1,.05-.14.16.16,0,0,1,.14,0h3.2V55H9.43a1.56,1.56,0,0,0-.6.12,1.21,1.21,0,0,0-.45.31,1.38,1.38,0,0,0-.29.46,1.69,1.69,0,0,0-.09.56,1.25,1.25,0,0,0,.13.61,1.07,1.07,0,0,0,.34.44,1.49,1.49,0,0,0,.48.26,1.77,1.77,0,0,0,.56.09h1.68a.22.22,0,0,1,.14.05.19.19,0,0,1,.06.15.16.16,0,0,1-.07.14.21.21,0,0,1-.12,0H8Z"/><path class="cls-2" d="M50.87,52.83h4.9a2.44,2.44,0,0,0,.8-.13,2,2,0,0,0,.7-.37,1.88,1.88,0,0,0,.5-.64,2.06,2.06,0,0,0,.19-.9,2.15,2.15,0,0,0-.15-.8,2,2,0,0,0-.41-.67,1.73,1.73,0,0,0-.64-.45,2.06,2.06,0,0,0-.88-.17H53.31a.27.27,0,0,1-.19-.08.24.24,0,0,1-.09-.21.29.29,0,0,1,.09-.21.29.29,0,0,1,.21-.08H58V46.35h-5a2.09,2.09,0,0,0-.88.17,2,2,0,0,0-.65.45,1.87,1.87,0,0,0-.4.65,2.18,2.18,0,0,0-.15.8,2,2,0,0,0,.19.9,1.85,1.85,0,0,0,.5.64,2.24,2.24,0,0,0,.7.37,2.42,2.42,0,0,0,.79.13h2.45a.3.3,0,0,1,.21.5.31.31,0,0,1-.19.08H50.87Zm-5.24-4,.62,1.27H45Zm1.25-2.47H44.42l-3.2,6.47h2.45l.48-1h3l.45,1h2.47Zm-9.51,6.47h2.19v-4.7h2.19V46.36H35.18v1.77h2.18v4.7ZM28.47,49a1.6,1.6,0,0,1,.36-.46,1.68,1.68,0,0,1,.55-.28,2.48,2.48,0,0,1,.68-.09h.57a2.63,2.63,0,0,1,.7.09,1.69,1.69,0,0,1,.57.28,1.67,1.67,0,0,1,.38.46,1.42,1.42,0,0,1,0,1.27,1.4,1.4,0,0,1-.38.46,1.69,1.69,0,0,1-.57.28,2.63,2.63,0,0,1-.7.09h-.57a2.2,2.2,0,0,1-.68-.1,1.9,1.9,0,0,1-.55-.28,1.37,1.37,0,0,1-.36-.46,1.26,1.26,0,0,1-.14-.62,1.29,1.29,0,0,1,.14-.64m4.26,3.6a3,3,0,0,0,1.08-.71,3.09,3.09,0,0,0,.63-1,3.82,3.82,0,0,0,.2-1.23,3.71,3.71,0,0,0-.21-1.18,3.29,3.29,0,0,0-.64-1,3.12,3.12,0,0,0-1.08-.73,3.78,3.78,0,0,0-1.52-.28H29.6a3.77,3.77,0,0,0-1.53.28,3.26,3.26,0,0,0-1.08.73,2.94,2.94,0,0,0-.63,1,3.2,3.2,0,0,0-.21,1.18,3.57,3.57,0,0,0,.2,1.23,2.91,2.91,0,0,0,.62,1,3.17,3.17,0,0,0,1.08.71,4.13,4.13,0,0,0,1.57.26h1.57a4.08,4.08,0,0,0,1.54-.26m-15.19-3a3.44,3.44,0,0,0,.31,1.46,3.17,3.17,0,0,0,.81,1.09,3.86,3.86,0,0,0,1.23.68,4.7,4.7,0,0,0,1.52.23A4.82,4.82,0,0,0,23,52.82a3.58,3.58,0,0,0,1.23-.68A3.08,3.08,0,0,0,25,51.05a3.43,3.43,0,0,0,.29-1.46V46.37h-2.2V49.6a1.75,1.75,0,0,1-.12.65,1.56,1.56,0,0,1-.36.53,1.46,1.46,0,0,1-.54.36,1.91,1.91,0,0,1-.68.12,1.85,1.85,0,0,1-.67-.12,1.66,1.66,0,0,1-.53-.36,1.63,1.63,0,0,1-.35-.53,1.76,1.76,0,0,1-.12-.66V46.36H17.54ZM10.74,49a1.6,1.6,0,0,1,.36-.46,1.68,1.68,0,0,1,.55-.28,2.48,2.48,0,0,1,.68-.09h.57a2.58,2.58,0,0,1,.86.14,1.44,1.44,0,0,1,.63.44h2.4a3.27,3.27,0,0,0-.4-.9,2.71,2.71,0,0,0-.69-.75,3.25,3.25,0,0,0-1-.51,3.85,3.85,0,0,0-1.27-.19H11.86a3.77,3.77,0,0,0-1.53.28,3.26,3.26,0,0,0-1.08.73,2.94,2.94,0,0,0-.63,1,3.2,3.2,0,0,0-.21,1.18,3.57,3.57,0,0,0,.2,1.23,2.83,2.83,0,0,0,.62,1,3.17,3.17,0,0,0,1.08.71,4.13,4.13,0,0,0,1.57.26h1.57a4.39,4.39,0,0,0,1.32-.18,2.94,2.94,0,0,0,1-.5,2.7,2.7,0,0,0,.68-.75,3,3,0,0,0,.37-.93H14.38a1.62,1.62,0,0,1-.63.44,2.57,2.57,0,0,1-.85.14h-.57a2.2,2.2,0,0,1-.68-.1,1.9,1.9,0,0,1-.55-.28,1.47,1.47,0,0,1-.36-.46,1.26,1.26,0,0,1-.14-.62,1.54,1.54,0,0,1,.14-.63"/><path d="M65.15,15.56H47.86a.83.83,0,0,0-.83.83h0V26.61a.83.83,0,0,0,.83.83H65.15a.83.83,0,0,0,.83-.83V16.37a.81.81,0,0,0-.83-.81"/><rect class="cls-2" x="60.22" y="17.42" width="0.34" height="1.74"/><path class="cls-2" d="M63.73,18.35v-.06a.83.83,0,1,0-1.66-.13v.15a.84.84,0,0,0,.77.91h.07a.93.93,0,0,0,.8-.46l-.3-.15a.56.56,0,0,1-.52.32.53.53,0,0,1-.52-.55h1.35v0Zm-1.3-.25a.49.49,0,0,1,.48-.43.48.48,0,0,1,.48.43Z"/><path class="cls-2" d="M64.92,17.67a.51.51,0,0,0-.46-.31.52.52,0,0,0-.52.48v0h0c0,.23.13.33.32.44l.33.18a.21.21,0,0,1,.11.19.25.25,0,0,1-.25.25h0a.37.37,0,0,1-.32-.21l-.29.14a.63.63,0,0,0,.6.4A.56.56,0,0,0,65,18.7v0a.53.53,0,0,0-.4-.5c-.19-.1-.41-.16-.41-.32a.17.17,0,0,1,.18-.17.24.24,0,0,1,.21.15Z"/><path class="cls-2" d="M62,19l0,.23h-.16a.94.94,0,0,1-.61-.16.52.52,0,0,1-.21-.48V16.77h.31v.55H62v.31h-.71v.89a.38.38,0,0,0,.14.35.75.75,0,0,0,.44.09H62"/><path class="cls-3" d="M60.14,17a.3.3,0,0,1,.27-.28.27.27,0,0,1,.26.28.26.26,0,0,1-.26.25h0a.24.24,0,0,1-.27-.25"/><path class="cls-2" d="M58.32,16.48v2.68h.33v-.8c0-.2,0-.69.43-.69s.4.19.4.49v1h.33v-1c0-.42-.14-.75-.62-.75a.59.59,0,0,0-.52.29h0v-1.2Z"/><rect class="cls-2" x="61.42" y="20.32" width="3.72" height="2.58"/><path class="cls-2" d="M53.7,19.7A3,3,0,0,0,51.56,22h0l-1.9-6.42H47.84l3.49,11.88h1.8l-.55-1.74c-.32-1.14-1-3.65,1.06-4.28,1.67-.48,2.2.5,2.65,2.06l1.13,3.93h1.8l-1.35-4.63C57.25,20.57,56.13,19,53.7,19.7Z"/></svg>